HIERARCHY
ROOT Hips
{
	OFFSET 0.000000 0.000000 0.000000
	CHANNELS 6 Xposition Yposition Zposition Xrotation Yrotation Zrotation
	JOINT LeftUpLeg_virtual
	{
		OFFSET 0.000000 0.000000 0.000000
		CHANNELS 3 Xrotation Yrotation Zrotation
		JOINT LeftUpLeg
		{
			OFFSET 15.427100 -6.655098 0.678600
			CHANNELS 3 Xrotation Yrotation Zrotation
			JOINT LeftLeg
			{
				OFFSET 4.081073 -39.591068 13.024000
				CHANNELS 3 Xrotation Yrotation Zrotation
				JOINT LeftFoot
				{
					OFFSET -4.081074 -37.707932 -15.979700
					CHANNELS 3 Xrotation Yrotation Zrotation
					JOINT LeftToeBase
					{
						OFFSET 5.346399 -15.068900 20.645000
						CHANNELS 3 Xrotation Yrotation Zrotation
						JOINT LeftToe_End
						{
							OFFSET 2.754700 0.931300 11.300900
							CHANNELS 3 Xrotation Yrotation Zrotation
							End Site
							{
								OFFSET 0 0 0
							}
						}
					}
				}
			}
		}
	}
	JOINT RightUpLeg_virtual
	{
		OFFSET 0.000000 0.000000 0.000000
		CHANNELS 3 Xrotation Yrotation Zrotation
		JOINT RightUpLeg
		{
			OFFSET -15.569500 -6.655098 0.678600
			CHANNELS 3 Xrotation Yrotation Zrotation
			JOINT RightLeg
			{
				OFFSET -4.081825 -39.591045 13.023800
				CHANNELS 3 Xrotation Yrotation Zrotation
				JOINT RightFoot
				{
					OFFSET 4.081824 -37.707954 -15.979600
					CHANNELS 3 Xrotation Yrotation Zrotation
					JOINT RightToeBase
					{
						OFFSET -5.346400 -15.068900 20.645000
						CHANNELS 3 Xrotation Yrotation Zrotation
						JOINT RightToe_End
						{
							OFFSET -2.754700 0.931300 11.300900
							CHANNELS 3 Xrotation Yrotation Zrotation
							End Site
							{
								OFFSET 0 0 0
							}
						}
					}
				}
			}
		}
	}
	JOINT Spine_virtual
	{
		OFFSET 0.000000 0.000000 0.000000
		CHANNELS 3 Xrotation Yrotation Zrotation
		JOINT Spine
		{
			OFFSET -0.279200 12.230698 -2.892100
			CHANNELS 3 Xrotation Yrotation Zrotation
			JOINT Spine1
			{
				OFFSET -0.232667 10.192268 -1.242267
				CHANNELS 3 Xrotation Yrotation Zrotation
				JOINT Spine1_split
				{
					OFFSET -0.232667 10.192268 -1.242267
					CHANNELS 3 Xrotation Yrotation Zrotation
					JOINT Spine2
					{
						OFFSET -0.232667 10.192268 -1.242267
						CHANNELS 3 Xrotation Yrotation Zrotation
						JOINT Neck_virtual
						{
							OFFSET 0.000000 0.000000 0.000000
							CHANNELS 3 Xrotation Yrotation Zrotation
							JOINT Neck
							{
								OFFSET -0.418800 17.814194 8.416900
								CHANNELS 3 Xrotation Yrotation Zrotation
								JOINT Head
								{
									OFFSET 0.000000 7.031097 3.806800
									CHANNELS 3 Xrotation Yrotation Zrotation
									JOINT HeadTop_End
									{
										OFFSET 0.000000 24.646606 12.978600
										CHANNELS 3 Xrotation Yrotation Zrotation
										End Site
										{
											OFFSET 0 0 0
										}
									}
								}
							}
						}
						JOINT LeftShoulder_virtual
						{
							OFFSET 0.000000 0.000000 0.000000
							CHANNELS 3 Xrotation Yrotation Zrotation
							JOINT LeftShoulder
							{
								OFFSET 8.476499 7.247704 -3.868750
								CHANNELS 3 Xrotation Yrotation Zrotation
								JOINT LeftShoulder_split
								{
									OFFSET 8.476499 7.247704 -3.868750
									CHANNELS 3 Xrotation Yrotation Zrotation
									JOINT LeftArm
									{
										OFFSET 9.308998 -2.777710 0.208600
										CHANNELS 3 Xrotation Yrotation Zrotation
										JOINT LeftForeArm
										{
											OFFSET 29.972298 0.000000 0.000000
											CHANNELS 3 Xrotation Yrotation Zrotation
											JOINT LeftHand
											{
												OFFSET 26.026505 0.000000 0.000000
												CHANNELS 3 Xrotation Yrotation Zrotation
												End Site
												{
													OFFSET 0 0 0
												}
											}
										}
									}
								}
							}
						}
						JOINT RightShoulder_virtual
						{
							OFFSET 0.000000 0.000000 0.000000
							CHANNELS 3 Xrotation Yrotation Zrotation
							JOINT RightShoulder
							{
								OFFSET -7.570500 7.247704 -3.868750
								CHANNELS 3 Xrotation Yrotation Zrotation
								JOINT RightShoulder_split
								{
									OFFSET -7.570500 7.247704 -3.868750
									CHANNELS 3 Xrotation Yrotation Zrotation
									JOINT RightArm
									{
										OFFSET -9.308998 -2.777710 0.208500
										CHANNELS 3 Xrotation Yrotation Zrotation
										JOINT RightForeArm
										{
											OFFSET -29.972300 0.000000 0.000000
											CHANNELS 3 Xrotation Yrotation Zrotation
											JOINT RightHand
											{
												OFFSET -26.026505 0.000000 0.000000
												CHANNELS 3 Xrotation Yrotation Zrotation
												End Site
												{
													OFFSET 0 0 0
												}
											}
										}
									}
								}
							}
						}
					}
				}
			}
		}
	}
}
MOTION
Frames: 4
Frame Time: 0.03333333
-12.534316 127.179443 -4.365654 0.000000 0.000000 0.000000 9.520465 -16.165728 -0.504691 -129.203574 -43.189185 32.607951 103.163307 -31.512389 -7.267277 32.868240 -18.117191 -27.215801 -0.017768 -0.000001 0.000004 0.000000 0.000000 0.000000 9.520465 -16.165728 -0.504691 -80.748136 42.391651 -122.917150 95.323828 42.096198 31.797082 69.386915 30.577927 2.772348 -0.009731 0.000007 -0.000002 0.000000 0.000000 0.000000 9.520465 -16.165728 -0.504691 33.622419 9.338203 -0.747647 7.005168 1.340331 1.044126 0.000000 0.000000 0.000000 0.000000 0.000000 0.000000 7.005153 1.323486 1.067151 7.594048 3.568080 1.767960 -5.812008 29.196053 -21.913187 0.000000 0.000000 0.000000 7.005153 1.323486 1.067151 0.375809 -3.663681 3.525977 0.000000 0.000000 0.000000 -38.687827 19.602003 21.846153 0.000002 -0.833157 -0.000009 0.000000 0.000000 0.000000 7.005153 1.323486 1.067151 -3.703286 -7.648390 -32.005939 0.000000 0.000000 0.000000 -45.797016 15.445745 -5.645448 -0.000000 11.835336 -0.000004 0.000000 0.000000 0.000000 
-13.273357 124.332848 -3.830490 0.000000 0.000000 0.000000 10.381637 -15.703635 1.278047 -127.252899 -46.935151 43.960289 96.506782 -35.270397 -20.061435 39.645638 -23.841269 -19.597208 -0.018059 0.000005 -0.000005 0.000000 0.000000 0.000000 10.381637 -15.703635 1.278047 -60.122727 37.268958 -84.785242 103.572934 43.486380 21.098692 6.774989 15.136994 42.264763 -0.008798 -0.000020 -0.000006 0.000000 0.000000 0.000000 10.381637 -15.703635 1.278047 33.371744 8.979389 -2.629526 6.928092 1.411405 0.809338 0.000000 0.000000 0.000000 0.000000 0.000000 0.000000 6.927396 1.400736 0.834283 8.137143 3.359824 2.019691 -4.939799 28.238415 -21.457493 0.000000 0.000000 0.000000 6.927396 1.400736 0.834283 0.260232 -3.373977 3.577374 0.000000 0.000000 0.000000 -40.196059 20.677967 26.508058 -0.000001 -2.492642 0.000001 0.000000 0.000000 0.000000 6.927396 1.400736 0.834283 -2.438235 -4.287078 -32.305569 0.000000 0.000000 0.000000 -40.704038 7.760214 -13.687612 -0.000001 15.033129 -0.000003 0.000000 0.000000 0.000000 
-13.141725 119.652222 -3.342365 0.000000 0.000000 0.000000 10.075157 -15.925464 1.689018 -125.637259 -45.798191 46.777527 95.882681 -34.698911 -23.976030 45.025140 -22.550863 -13.098153 -0.017426 0.000001 0.000004 0.000000 0.000000 0.000000 10.075157 -15.925464 1.689018 -45.466175 32.868930 -85.889704 95.172696 46.993877 31.307511 -4.409302 10.478625 40.390556 -0.007141 0.000001 -0.000007 0.000000 0.000000 0.000000 10.075157 -15.925464 1.689018 31.603500 9.067677 -3.495370 6.538970 1.568813 0.665329 0.000000 0.000000 0.000000 0.000000 0.000000 0.000000 6.537229 1.564635 0.691662 7.826002 3.324095 1.952253 -4.157725 27.663967 -21.379896 0.000000 0.000000 0.000000 6.537229 1.564635 0.691662 0.039206 -2.385780 4.168917 0.000000 0.000000 0.000000 -38.968336 20.585637 29.044396 -0.000001 -3.374195 -0.000003 0.000000 0.000000 0.000000 6.537229 1.564635 0.691662 -1.195181 -0.396599 -31.763341 0.000000 0.000000 0.000000 -37.135141 -0.211839 -19.628946 0.000006 19.145500 -0.000008 0.000000 0.000000 0.000000 
-12.508253 113.550842 -3.738689 0.000000 0.000000 0.000000 8.617703 -16.132975 1.085042 -127.637835 -41.146323 38.179046 101.207933 -30.331395 -17.744439 42.082742 -19.690874 -12.570922 -0.012149 -0.000001 0.000001 0.000000 0.000000 0.000000 8.617703 -16.132975 1.085042 -45.374039 29.041531 -72.465794 100.565048 43.943815 24.071161 -16.496427 4.796495 37.109586 -0.003636 -0.000002 0.000013 0.000000 0.000000 0.000000 8.617703 -16.132975 1.085042 29.093491 9.917946 -3.423036 5.995021 1.728300 0.680312 0.000000 0.000000 0.000000 0.000000 0.000000 0.000000 5.991700 1.728369 0.706515 7.528504 3.405290 1.903800 -4.302177 27.824756 -21.110890 0.000000 0.000000 0.000000 5.991700 1.728369 0.706515 -0.058451 -2.072649 4.852712 0.000000 0.000000 0.000000 -37.181863 21.291342 30.847494 -0.000001 -3.951672 -0.000003 0.000000 0.000000 0.000000 5.991700 1.728369 0.706515 -0.388911 2.653074 -30.259244 0.000000 0.000000 0.000000 -35.260090 -5.616378 -21.941766 0.000004 21.810549 -0.000005 0.000000 0.000000 0.000000 
